<svg width="122" height="44" viewBox="0 0 122 44" fill="none" xmlns="http://www.w3.org/2000/svg">
<path d="M44.2969 35.5469C44.2969 36.25 44.1536 36.8783 43.8672 37.4316C43.5872 37.985 43.1999 38.444 42.7051 38.8086C42.1322 39.2383 41.5007 39.5443 40.8105 39.7266C40.127 39.9089 39.2578 40 38.2031 40H31.8555V25.459H37.5C38.6719 25.459 39.528 25.498 40.0684 25.5762C40.6152 25.6543 41.1556 25.8268 41.6895 26.0938C42.2428 26.3737 42.653 26.7513 42.9199 27.2266C43.1934 27.6953 43.3301 28.2324 43.3301 28.8379C43.3301 29.541 43.1445 30.1628 42.7734 30.7031C42.4023 31.237 41.8783 31.6536 41.2012 31.9531V32.0312C42.1517 32.2201 42.9036 32.6107 43.457 33.2031C44.0169 33.7956 44.2969 34.5768 44.2969 35.5469ZM39.4922 29.5703C39.4922 29.3294 39.4303 29.0885 39.3066 28.8477C39.1895 28.6068 38.9779 28.4277 38.6719 28.3105C38.3984 28.2064 38.0566 28.151 37.6465 28.1445C37.2428 28.1315 36.6732 28.125 35.9375 28.125H35.5859V31.2012H36.1719C36.7643 31.2012 37.2689 31.1914 37.6855 31.1719C38.1022 31.1523 38.431 31.0872 38.6719 30.9766C39.0104 30.8268 39.2318 30.6348 39.3359 30.4004C39.4401 30.1595 39.4922 29.8828 39.4922 29.5703ZM40.4102 35.4883C40.4102 35.026 40.319 34.6712 40.1367 34.4238C39.9609 34.1699 39.6582 33.9811 39.2285 33.8574C38.9355 33.7728 38.5319 33.7272 38.0176 33.7207C37.5033 33.7142 36.9661 33.7109 36.4062 33.7109H35.5859V37.334H35.8594C36.9141 37.334 37.6693 37.3307 38.125 37.3242C38.5807 37.3177 39.0007 37.2331 39.3848 37.0703C39.7754 36.9076 40.0423 36.6927 40.1855 36.4258C40.3353 36.1523 40.4102 35.8398 40.4102 35.4883ZM60.5273 40H56.6504L55.6445 37.0605H50.2539L49.248 40H45.4688L50.8398 25.459H55.1562L60.5273 40ZM54.7363 34.3945L52.9492 29.1797L51.1621 34.3945H54.7363ZM75.3516 34.7363C75.3516 36.5332 74.8047 37.9102 73.7109 38.8672C72.6172 39.8242 71.0059 40.3027 68.877 40.3027C66.748 40.3027 65.1367 39.8242 64.043 38.8672C62.9557 37.9102 62.4121 36.5365 62.4121 34.7461V25.459H66.1816V34.5312C66.1816 35.5404 66.3932 36.2923 66.8164 36.7871C67.2396 37.2819 67.9264 37.5293 68.877 37.5293C69.8145 37.5293 70.498 37.2917 70.9277 36.8164C71.3639 36.3411 71.582 35.5794 71.582 34.5312V25.459H75.3516V34.7363ZM90.2441 28.2715H85.7031V40H81.9531V28.2715H77.4121V25.459H90.2441V28.2715ZM100.654 29.9121C100.654 29.5475 100.579 29.235 100.43 28.9746C100.28 28.7142 100.023 28.5091 99.6582 28.3594C99.4043 28.2552 99.1081 28.1934 98.7695 28.1738C98.431 28.1478 98.0371 28.1348 97.5879 28.1348H96.2305V32.0508H97.3828C97.9818 32.0508 98.4831 32.0215 98.8867 31.9629C99.2904 31.9043 99.6289 31.7708 99.9023 31.5625C100.163 31.3607 100.352 31.1393 100.469 30.8984C100.592 30.651 100.654 30.3223 100.654 29.9121ZM106.504 40H101.924L97.959 34.668H96.2305V40H92.5V25.459H98.7891C99.6484 25.459 100.387 25.5078 101.006 25.6055C101.624 25.7031 102.204 25.9147 102.744 26.2402C103.291 26.5658 103.724 26.9889 104.043 27.5098C104.368 28.0241 104.531 28.6719 104.531 29.4531C104.531 30.5273 104.281 31.403 103.779 32.0801C103.285 32.7572 102.575 33.3203 101.65 33.7695L106.504 40ZM121.582 40H117.705L116.699 37.0605H111.309L110.303 40H106.523L111.895 25.459H116.211L121.582 40ZM115.791 34.3945L114.004 29.1797L112.217 34.3945H115.791Z" fill="black"/>
<path d="M12.373 20H1.85547V5.45898H12.373V8.27148H5.58594V10.7812H11.8848V13.5938H5.58594V17.1875H12.373V20ZM29.2676 12.7441C29.2676 14.0983 28.9583 15.3125 28.3398 16.3867C27.7214 17.4544 26.9401 18.2747 25.9961 18.8477C25.2865 19.2773 24.5085 19.5768 23.6621 19.7461C22.8158 19.9154 21.8132 20 20.6543 20H15.5273V5.45898H20.8008C21.9857 5.45898 23.0078 5.5599 23.8672 5.76172C24.7266 5.95703 25.4492 6.23698 26.0352 6.60156C27.0378 7.21354 27.8255 8.04036 28.3984 9.08203C28.9779 10.1172 29.2676 11.3379 29.2676 12.7441ZM25.3906 12.7148C25.3906 11.7578 25.2148 10.9408 24.8633 10.2637C24.5182 9.58008 23.9681 9.04622 23.2129 8.66211C22.8288 8.47331 22.4349 8.34635 22.0312 8.28125C21.6341 8.20964 21.0319 8.17383 20.2246 8.17383H19.2773V17.2754H20.2246C21.1165 17.2754 21.7708 17.2363 22.1875 17.1582C22.6042 17.0736 23.0111 16.9238 23.4082 16.709C24.0918 16.3184 24.5931 15.7975 24.9121 15.1465C25.2311 14.4889 25.3906 13.6784 25.3906 12.7148ZM44.9902 19.1699C44.3392 19.4238 43.4766 19.6777 42.4023 19.9316C41.3281 20.179 40.2572 20.3027 39.1895 20.3027C36.7155 20.3027 34.7786 19.6322 33.3789 18.291C31.9792 16.9434 31.2793 15.0846 31.2793 12.7148C31.2793 10.4557 31.9857 8.63607 33.3984 7.25586C34.8112 5.86914 36.7806 5.17578 39.3066 5.17578C40.2637 5.17578 41.1751 5.26367 42.041 5.43945C42.9069 5.60872 43.8704 5.95052 44.9316 6.46484V9.87305H44.5117C44.3294 9.73633 44.0625 9.54427 43.7109 9.29688C43.3594 9.04297 43.0208 8.82812 42.6953 8.65234C42.3177 8.44401 41.875 8.26497 41.3672 8.11523C40.8659 7.96549 40.332 7.89062 39.7656 7.89062C39.1016 7.89062 38.4993 7.98828 37.959 8.18359C37.4186 8.37891 36.9336 8.67839 36.5039 9.08203C36.0938 9.47266 35.7682 9.9707 35.5273 10.5762C35.293 11.1751 35.1758 11.8685 35.1758 12.6562C35.1758 14.2643 35.6022 15.4948 36.4551 16.3477C37.3079 17.2005 38.5677 17.627 40.2344 17.627C40.3776 17.627 40.5339 17.6237 40.7031 17.6172C40.8789 17.6107 41.0384 17.6009 41.1816 17.5879V14.7363H38.2812V11.9922H44.9902V19.1699ZM61.7969 20H57.9199L56.9141 17.0605H51.5234L50.5176 20H46.7383L52.1094 5.45898H56.4258L61.7969 20ZM56.0059 14.3945L54.2188 9.17969L52.4316 14.3945H56.0059ZM72.041 9.91211C72.041 9.54753 71.9661 9.23503 71.8164 8.97461C71.6667 8.71419 71.4095 8.50911 71.0449 8.35938C70.791 8.25521 70.4948 8.19336 70.1562 8.17383C69.8177 8.14779 69.4238 8.13477 68.9746 8.13477H67.6172V12.0508H68.7695C69.3685 12.0508 69.8698 12.0215 70.2734 11.9629C70.6771 11.9043 71.0156 11.7708 71.2891 11.5625C71.5495 11.3607 71.7383 11.1393 71.8555 10.8984C71.9792 10.651 72.041 10.3223 72.041 9.91211ZM77.8906 20H73.3105L69.3457 14.668H67.6172V20H63.8867V5.45898H70.1758C71.0352 5.45898 71.7741 5.50781 72.3926 5.60547C73.0111 5.70312 73.5905 5.91471 74.1309 6.24023C74.6777 6.56576 75.1107 6.98893 75.4297 7.50977C75.7552 8.02409 75.918 8.67188 75.918 9.45312C75.918 10.5273 75.6673 11.403 75.166 12.0801C74.6712 12.7572 73.9616 13.3203 73.0371 13.7695L77.8906 20ZM91.1719 15.4297C91.1719 16.862 90.5632 18.0273 89.3457 18.9258C88.1348 19.8177 86.4876 20.2637 84.4043 20.2637C83.1999 20.2637 82.1484 20.1595 81.25 19.9512C80.3581 19.7363 79.5215 19.4661 78.7402 19.1406V15.6543H79.1504C79.9251 16.2728 80.791 16.748 81.748 17.0801C82.7116 17.4121 83.6361 17.5781 84.5215 17.5781C84.7493 17.5781 85.0488 17.5586 85.4199 17.5195C85.791 17.4805 86.0938 17.4154 86.3281 17.3242C86.6146 17.207 86.849 17.0605 87.0312 16.8848C87.2201 16.709 87.3145 16.4486 87.3145 16.1035C87.3145 15.7845 87.1777 15.5111 86.9043 15.2832C86.6374 15.0488 86.2435 14.8698 85.7227 14.7461C85.1758 14.6159 84.5964 14.4954 83.9844 14.3848C83.3789 14.2676 82.8092 14.1211 82.2754 13.9453C81.0514 13.5482 80.1693 13.0111 79.6289 12.334C79.0951 11.6504 78.8281 10.804 78.8281 9.79492C78.8281 8.44076 79.4336 7.33724 80.6445 6.48438C81.862 5.625 83.4245 5.19531 85.332 5.19531C86.2891 5.19531 87.2331 5.28971 88.1641 5.47852C89.1016 5.66081 89.9121 5.89193 90.5957 6.17188V9.52148H90.1953C89.6094 9.05273 88.89 8.66211 88.0371 8.34961C87.1908 8.0306 86.3249 7.87109 85.4395 7.87109C85.127 7.87109 84.8145 7.89388 84.502 7.93945C84.196 7.97852 83.8997 8.05664 83.6133 8.17383C83.3594 8.27148 83.1413 8.42122 82.959 8.62305C82.7767 8.81836 82.6855 9.04297 82.6855 9.29688C82.6855 9.68099 82.832 9.97721 83.125 10.1855C83.418 10.3874 83.9714 10.5729 84.7852 10.7422C85.319 10.8529 85.8301 10.9603 86.3184 11.0645C86.8132 11.1686 87.3438 11.3118 87.9102 11.4941C89.0234 11.8587 89.8438 12.3568 90.3711 12.9883C90.9049 13.6133 91.1719 14.4271 91.1719 15.4297Z" fill="black"/>
</svg>
